<?xml version="1.0" standalone="no"?>
<!DOCTYPE svg PUBLIC "-//W3C//DTD SVG 20010904//EN"
 "http://www.w3.org/TR/2001/REC-SVG-20010904/DTD/svg10.dtd">
<svg version="1.0" xmlns="http://www.w3.org/2000/svg"
 width="512.000000pt" height="512.000000pt" viewBox="0 0 512.000000 512.000000"
 preserveAspectRatio="xMidYMid meet">
<metadata>
Created by potrace 1.11, written by Peter Selinger 2001-2013
</metadata>
<g transform="translate(0.000000,512.000000) scale(0.100000,-0.100000)"
fill="#000000" stroke="none">
<path d="M1563 4025 c-74 -16 -175 -64 -228 -108 -21 -17 -234 -245 -473 -506
-240 -262 -472 -514 -517 -561 -234 -246 -340 -496 -340 -810 0 -193 33 -337
115 -500 129 -257 368 -466 635 -558 226 -77 504 -77 730 0 267 92 506 301
635 558 82 165 113 298 115 505 l1 150 324 0 324 0 1 -150 c2 -207 33 -340
115 -505 155 -307 438 -524 780 -597 172 -36 412 -20 585 39 267 92 506 301
635 558 82 163 115 307 115 500 0 314 -106 564 -340 810 -45 47 -277 299 -517
561 -239 261 -452 489 -473 506 -86 72 -235 123 -355 123 -191 0 -391 -123
-483 -297 -53 -102 -67 -172 -67 -350 l0 -153 -320 0 -320 0 0 153 c0 178 -14
248 -67 350 -115 219 -366 335 -610 282z m-245 -1216 c355 -91 594 -400 594
-769 0 -446 -346 -792 -792 -792 -370 0 -674 235 -771 597 -30 111 -30 279 0
390 116 433 540 684 969 574z m2880 0 c355 -91 594 -400 594 -769 0 -446 -346
-792 -792 -792 -370 0 -674 235 -771 597 -30 111 -30 279 0 390 116 433 540
684 969 574z"/>
</g>
</svg>
